PathFileType	4	(X/Y/Z)	C:\Users\dbl\Desktop\LZH\BX\Trimmed_Trimmed_Trimmed_Trimmed_bx_n_5_1801.trc
DataRate	CameraRate	NumFrames	NumMarkers	Units	OrigDataRate	OrigDataStartFrame	OrigNumFrames
50.00	50.00	       6	43	mm	50.00	182	       290
Frame#	Time	Top.Head			R.Acromium			L.Acromium			Sternum			R.ASIS			L.ASIS			V.Sacral			R.Thigh.Upper			R.Thigh.Front			R.Thigh.Rear			R.Knee.Lat			R.Knee.Med			R.Shank.Upper			R.Shank.Front			R.Shank.Rear			R.Ankle.Lat			R.Midfoot.Lat			R.Toe.Lat			R.Toe.Tip			R.Toe.Med			R.Ankle.Med			R.Midfoot.Sup			R.Heel			L.Thigh.Upper			L.Thigh.Front			L.Thigh.Rear			L.Knee.Lat			L.Knee.Med			L.Shank.Upper			L.Shank.Front			L.Shank.Rear			L.Ankle.Lat			L.Midfoot.Lat			L.Toe.Lat			L.Toe.Tip			L.Toe.Med			L.Ankle.Med			L.Midfoot.Sup			L.Heel			origin1 front left			origin2 front right			origin 3 back right			origin 4 back leftt			
		X1	Y1	Z1	X2	Y2	Z2	X3	Y3	Z3	X4	Y4	Z4	X5	Y5	Z5	X6	Y6	Z6	X7	Y7	Z7	X8	Y8	Z8	X9	Y9	Z9	X10	Y10	Z10	X11	Y11	Z11	X12	Y12	Z12	X13	Y13	Z13	X14	Y14	Z14	X15	Y15	Z15	X16	Y16	Z16	X17	Y17	Z17	X18	Y18	Z18	X19	Y19	Z19	X20	Y20	Z20	X21	Y21	Z21	X22	Y22	Z22	X23	Y23	Z23	X24	Y24	Z24	X25	Y25	Z25	X26	Y26	Z26	X27	Y27	Z27	X28	Y28	Z28	X29	Y29	Z29	X30	Y30	Z30	X31	Y31	Z31	X32	Y32	Z32	X33	Y33	Z33	X34	Y34	Z34	X35	Y35	Z35	X36	Y36	Z36	X37	Y37	Z37	X38	Y38	Z38	X39	Y39	Z39	X40	Y40	Z40	X41	Y41	Z41	X42	Y42	Z42	X43	Y43	Z43	

182	3.620	-309.67130	255.18788	1273.42896	-412.57510	93.55958	1025.20972	-407.31677	422.92691	1004.64960	-512.10297	236.34598	875.73584	-743.87915	140.49416	726.07355	-716.63336	352.03256	718.84808	-938.03821	270.66669	750.37146	-711.60089	67.31856	636.00159	-638.22504	129.56201	703.49994	-595.20880	56.44841	605.06909	-502.62756	72.95142	528.78485	-465.95758	183.73352	521.55267	-520.46838	76.37231	484.40692	-446.00104	128.40627	464.63715	-549.62140	76.93105	444.29858	-669.47260	151.70708	215.15135	-607.31195	92.22654	167.50699	-561.29034	70.63941	162.61461	-481.42789	112.58408	155.35551	-528.36218	164.81941	162.50836	-622.71118	227.35683	211.67435	-591.62250	203.74376	165.85237	-717.00519	220.95341	176.66408	-697.22656	454.01971	638.77802	-619.17883	398.47330	701.97443	-594.55756	449.11728	589.78308	-469.75275	431.87323	533.25360	-449.25018	312.53281	513.03839	-474.74820	429.73065	498.62384	-413.22397	370.37787	482.76343	-549.74219	423.13470	463.32544	-663.05420	393.38501	213.39738	-581.26715	446.44412	166.26172	-544.03931	457.29852	158.03760	-477.76633	409.84186	163.62512	-521.61475	366.80899	175.09093	-628.67755	293.46313	192.23819	-591.20490	325.96619	162.79414	-729.31525	322.40912	165.13681	-443.85510	447.97110	146.54559	-450.78101	75.92210	142.64668	-806.19061	82.22539	141.87169	-799.48010	456.97827	145.45921	
183	3.640	-313.44379	254.43890	1281.48999	-413.88977	92.69131	1032.06445	-408.43066	422.55243	1011.96582	-512.05151	236.50862	882.34125	-742.88849	139.94952	729.97437	-715.27399	352.19656	723.79108	-937.03589	270.10782	754.42120	-710.64417	67.32419	638.31018	-636.59595	128.98959	705.59631	-594.63275	56.61645	606.17206	-502.79620	73.38026	529.13849	-466.07819	184.03104	521.60480	-520.70850	76.67479	484.65125	-446.22882	128.59146	464.74728	-549.85138	77.29889	444.53247	-669.51788	151.74858	215.19044	-607.32281	92.17908	167.46620	-561.33240	70.72635	162.55284	-481.35587	112.50854	155.36319	-528.33746	164.77507	162.51636	-622.73907	227.36984	211.63010	-591.62579	203.70064	165.79082	-716.92230	220.96204	176.51820	-696.56372	453.84427	642.02618	-617.89514	398.10486	704.10718	-594.40021	448.54419	591.62695	-469.88300	431.69690	533.81909	-449.57111	312.01981	513.26917	-475.32843	429.08926	499.11935	-413.53757	369.78757	483.07574	-550.17505	422.59924	463.73505	-663.22327	393.38281	213.59612	-581.30139	446.51001	166.25497	-543.99463	457.29892	158.06473	-477.76926	409.92328	163.73006	-521.56580	366.97015	175.25363	-629.06586	293.70538	192.56265	-591.24268	326.04837	162.85225	-729.36816	322.41769	165.14787	-443.87918	448.00723	146.62474	-450.78076	75.92352	142.64664	-806.24438	82.22329	141.91498	-799.49426	456.97833	145.44104	
184	3.660	-317.17194	253.59776	1290.04468	-415.31134	91.82140	1039.42395	-409.58466	422.08307	1019.76465	-512.01825	236.67920	889.21173	-741.87531	139.40448	734.37482	-713.84320	352.32990	728.97528	-935.97528	269.56512	758.94183	-709.75269	67.27348	640.90277	-634.93018	128.36499	707.89575	-594.13879	56.68985	607.46393	-503.11279	73.58139	529.64307	-466.33832	184.22534	521.76172	-521.08875	76.92705	484.90948	-446.56689	128.70401	464.96149	-550.22253	77.66980	444.72974	-669.63647	151.75162	215.19080	-607.33777	92.09547	167.40057	-561.39459	70.85812	162.43228	-481.34024	112.38251	155.44571	-528.32593	164.73642	162.53691	-622.84058	227.36575	211.64613	-591.65869	203.68745	165.76852	-716.84955	220.92618	176.39592	-695.85547	453.71857	645.53076	-616.57263	397.82138	706.40924	-594.26801	447.88889	593.56476	-470.14081	431.33865	534.36383	-449.98328	311.46579	513.66132	-476.00378	428.44287	499.65573	-413.87646	369.00122	483.45758	-550.65015	422.03949	464.20438	-663.38635	393.33987	213.75545	-581.35406	446.56549	166.26089	-543.95447	457.33380	158.10686	-477.75055	409.98224	163.81732	-521.53699	367.06400	175.36465	-629.44586	293.97421	192.89880	-591.24646	326.11755	162.90707	-729.40375	322.46390	165.19757	-443.90250	448.05209	146.67778	-450.77805	75.92294	142.65016	-806.28137	82.20275	141.94623	-799.49365	456.96747	145.44185	
185	3.680	-320.90955	252.66362	1299.09668	-416.86450	90.98207	1047.23364	-410.81744	421.51599	1028.00928	-512.00378	236.85779	896.34729	-740.80908	138.84671	739.23547	-712.33978	352.43063	734.40277	-934.89001	269.02502	763.87158	-708.94678	67.12183	643.77826	-633.27454	127.69685	710.33539	-593.75049	56.66003	608.93811	-503.52396	73.56682	530.24780	-466.71460	184.27347	522.01971	-521.62378	77.14310	485.22455	-447.03778	128.71405	465.25412	-550.74182	77.93314	444.96338	-669.81152	151.75095	215.13455	-607.37231	91.99799	167.31273	-561.42676	70.93516	162.31989	-481.39554	112.25407	155.55405	-528.32495	164.71446	162.56389	-622.94305	227.32368	211.67928	-591.70325	203.65730	165.73003	-716.78979	220.84547	176.30296	-695.11780	453.38922	649.06982	-615.15216	397.57968	708.95880	-594.16266	447.20630	595.63226	-470.56586	430.77332	534.88873	-450.50381	310.82443	514.20496	-476.74628	427.73654	500.23666	-414.32675	368.12589	483.88434	-551.20648	421.44644	464.70502	-663.54333	393.25171	213.80171	-581.38953	446.61267	166.27039	-543.90387	457.41333	158.16119	-477.72278	410.01886	163.86734	-521.53021	367.07495	175.38516	-629.81671	294.27023	193.24657	-591.25665	326.14685	162.93991	-729.40491	322.54315	165.25841	-443.91299	448.07465	146.67696	-450.77222	75.91507	142.65985	-806.27820	82.18598	141.93460	-799.47601	456.94879	145.45502	
186	3.700	-324.68286	251.65572	1308.65063	-418.54190	90.12965	1055.50635	-412.13309	420.94064	1036.72949	-512.00873	237.04448	903.74786	-739.65363	138.23402	744.48181	-710.76257	352.49677	740.07556	-933.77789	268.49179	769.18896	-708.22070	66.87868	646.88568	-631.61572	126.94772	712.90088	-593.46674	56.55298	610.56018	-504.04419	73.44820	530.92804	-467.13321	184.11388	522.33990	-522.31720	77.34547	485.61029	-447.65256	128.60966	465.61145	-551.40845	78.03156	445.28705	-670.00201	151.77863	215.02705	-607.42468	91.91352	167.19229	-561.39014	70.86293	162.30035	-481.48773	112.14206	155.65166	-528.34052	164.71738	162.57872	-623.01495	227.25711	211.68544	-591.73035	203.59261	165.66554	-716.73743	220.74544	176.23071	-694.40063	452.70517	652.56946	-613.61072	397.33875	711.76459	-594.07605	446.55197	597.89355	-471.16592	430.01877	535.42194	-451.10065	310.12589	514.84302	-477.57281	426.88187	500.84363	-414.96664	367.29324	484.32498	-551.89825	420.82877	465.23453	-663.69574	393.12991	213.74002	-581.40564	446.65402	166.27783	-543.84088	457.51819	158.22531	-477.70480	410.03809	163.87621	-521.54559	367.01950	175.32901	-630.17743	294.59402	193.60585	-591.30365	326.12543	162.95575	-729.37537	322.62274	165.28456	-443.90884	448.05630	146.64267	-450.76611	75.89542	142.67357	-806.24841	82.19622	141.87447	-799.44690	456.93283	145.46846	
187	3.720	-328.49811	250.61676	1318.69592	-420.29968	89.20619	1064.29492	-413.52051	420.45233	1045.96680	-512.03381	237.23932	911.41345	-738.38287	137.56215	750.03436	-709.11035	352.52625	745.99567	-932.58978	267.97073	774.92212	-707.54199	66.55403	650.19202	-629.90784	126.06065	715.62457	-593.28729	56.37506	612.31177	-504.73431	73.30756	531.68970	-467.51306	183.77490	522.67957	-523.16992	77.50214	486.06763	-448.39319	128.40157	466.00958	-552.22693	78.00169	445.68085	-670.17706	151.83936	214.89252	-607.46375	91.84569	167.03574	-561.31299	70.66142	162.36244	-481.56625	112.04988	155.74063	-528.36420	164.73134	162.58307	-623.06390	227.18709	211.64374	-591.73669	203.51988	165.60461	-716.70648	220.67101	176.15759	-693.70074	451.74716	656.13202	-611.96942	397.09497	714.74384	-593.99963	445.91217	600.34473	-471.93365	429.10645	536.00092	-451.74670	309.41959	515.57404	-478.49789	425.87036	501.46191	-415.81638	366.57986	484.76678	-552.73596	420.19653	465.79965	-663.85028	393.00403	213.64401	-581.42267	446.68707	166.27863	-543.79041	457.61740	158.28287	-477.69711	410.04593	163.86290	-521.56964	366.95978	175.25598	-630.52704	294.94620	193.97658	-591.38190	326.07773	162.97646	-729.34290	322.68427	165.24968	-443.90085	448.00537	146.60791	-450.76172	75.86267	142.68953	-806.21545	82.22054	141.80571	-799.41119	456.92490	145.47852	
